<svg data-v-423bf9ae=""
    xmlns="http://www.w3.org/2000/svg" viewBox="0 0 132.54589415036864 185" class="iconAbove">    <!---->    <!---->    <!---->
    <g data-v-423bf9ae="" id="ea051cf7-bf8e-4e5a-a65c-2b8a286c7899" fill="black" transform="matrix(4.788507683852314,0,0,4.788507683852314,-0.76616273441131,122.35221707896977)">
        <path d="M8.40 2.12L5.28 2.12L5.28 10.19L3.27 10.19L3.27 2.12L0.16 2.12L0.16 0.56L8.40 0.56L8.40 2.12ZM18.85 5.33L18.85 5.33L18.85 5.33Q18.85 6.30 18.61 7.11L18.61 7.11L18.61 7.11Q18.37 7.92 17.91 8.54L17.91 8.54L17.91 8.54Q17.45 9.17 16.78 9.58L16.78 9.58L16.78 9.58Q16.12 9.99 15.27 10.17L15.27 10.17L15.27 10.17Q15.41 10.56 15.59 10.81L15.59 10.81L15.59 10.81Q15.78 11.06 16.01 11.20L16.01 11.20L16.01 11.20Q16.24 11.34 16.52 11.39L16.52 11.39L16.52 11.39Q16.79 11.44 17.10 11.44L17.10 11.44L17.10 11.44Q17.30 11.44 17.51 11.43L17.51 11.43L17.51 11.43Q17.71 11.41 17.92 11.38L17.92 11.38L17.90 12.76L17.90 12.76Q17.53 12.84 17.13 12.89L17.13 12.89L17.13 12.89Q16.73 12.95 16.25 12.95L16.25 12.95L16.25 12.95Q15.60 12.95 15.11 12.75L15.11 12.75L15.11 12.75Q14.63 12.56 14.27 12.21L14.27 12.21L14.27 12.21Q13.91 11.85 13.66 11.36L13.66 11.36L13.66 11.36Q13.41 10.86 13.23 10.26L13.23 10.26L13.23 10.26Q12.20 10.17 11.43 9.76L11.43 9.76L11.43 9.76Q10.66 9.36 10.15 8.71L10.15 8.71L10.15 8.71Q9.64 8.06 9.38 7.20L9.38 7.20L9.38 7.20Q9.13 6.34 9.13 5.33L9.13 5.33L9.13 5.33Q9.13 4.20 9.44 3.29L9.44 3.29L9.44 3.29Q9.76 2.39 10.38 1.75L10.38 1.75L10.38 1.75Q11.00 1.11 11.90 0.76L11.90 0.76L11.90 0.76Q12.81 0.42 13.99 0.42L13.99 0.42L13.99 0.42Q15.16 0.42 16.07 0.77L16.07 0.77L16.07 0.77Q16.97 1.11 17.59 1.76L17.59 1.76L17.59 1.76Q18.21 2.40 18.53 3.31L18.53 3.31L18.53 3.31Q18.85 4.21 18.85 5.33ZM16.80 5.33L16.80 5.33L16.80 5.33Q16.80 4.57 16.61 3.96L16.61 3.96L16.61 3.96Q16.43 3.35 16.08 2.91L16.08 2.91L16.08 2.91Q15.72 2.47 15.20 2.24L15.20 2.24L15.20 2.24Q14.68 2.00 13.99 2.00L13.99 2.00L13.99 2.00Q13.28 2.00 12.75 2.24L12.75 2.24L12.75 2.24Q12.22 2.47 11.87 2.91L11.87 2.91L11.87 2.91Q11.51 3.35 11.33 3.96L11.33 3.96L11.33 3.96Q11.16 4.57 11.16 5.33L11.16 5.33L11.16 5.33Q11.16 6.08 11.34 6.71L11.34 6.71L11.34 6.71Q11.52 7.34 11.87 7.79L11.87 7.79L11.87 7.79Q12.23 8.24 12.76 8.50L12.76 8.50L12.76 8.50Q13.28 8.75 13.97 8.75L13.97 8.75L13.97 8.75Q14.71 8.75 15.24 8.49L15.24 8.49L15.24 8.49Q15.78 8.24 16.12 7.78L16.12 7.78L16.12 7.78Q16.47 7.33 16.63 6.70L16.63 6.70L16.63 6.70Q16.80 6.07 16.80 5.33ZM27.84 2.12L24.73 2.12L24.73 10.19L22.71 10.19L22.71 2.12L19.60 2.12L19.60 0.56L27.84 0.56L27.84 2.12Z"></path>
    </g>    <!---->
    <g data-v-423bf9ae="" id="883a9098-15ac-49f2-80d0-e1e716bbdda3" transform="matrix(1.112371826171875,0,0,1.112371826171875,11.2740169016528,0.33105170083354807)" stroke="none" fill="black">
        <path d="M61.593 46.267l.004.021.005.021c.038.222.797.109.984-.134l.007-.004c2.208-2.732 5.82-2.428 8.966-2.792 2.021-.233 4.051-.587 5.985-1.222 4.405-1.444 6.639-6.494 9.865-9.446.22-.2.043-.302-.192-.302-5.819-.023-12.049-.503-17.617 1.562-5.241 1.944-6.759 7.319-8.007 12.296M47.388 21.693c-.955 4.124 1.494 10.174 4.587 12.904.129.115.324.122.501.065a.525.525 0 0 0 .339-.208c4.706-6.957 11.15-16.488 5.445-24.755-.212-.309-.711-.16-.919.066-3.725 4.075-8.619 6.178-9.953 11.928M34.734 51.221l.117-.059.035-.021.096-.082.002-.003.034-.059.014-.058.008-.023v-.239c0-.102-.156-.135-.347-.121-5.661-5.514-14.308-4.793-20.791-8.892-.179-.113-1.148.005-1.01.333 1.693 4.052 2.977 8.907 7.075 11.195 4.74 2.644 10.286-.031 14.734-1.956l.033-.015zM38.014 65.277c2.927-3.315 2.48-7.552 2.438-11.654-.002-.156-.257-.186-.514-.13l-.214.062c-3.461 1.68-7.188 2.932-9.8 5.896-2.876 3.259-1.969 8.294-2.962 12.235-.097.387.72.149.845.08 3.542-1.967 7.461-3.382 10.207-6.489M26.812 36.294h.088l.062-.01c.299-.045.592-.247.503-.518-1.025-3.133-1.885-7.154-4.471-9.445-2.563-2.271-6.516-2.166-9.677-1.604-.317.056-.584.419-.303.672 2.637 2.381 2.634 6.229 5.3 8.521 2.213 1.901 5.74 1.89 8.448 2.382h.05zM82.325 65.637c-3.229-1.935-6.361-4.34-10.181-4.881-3.393-.482-6.024.671-9.221 1.685-.145.047-.219.106-.249.171l.004.23c1.987 3.205 5.032 6.789 8.965 7.415 4.424.703 6.754-2.553 10.577-4.065.249-.098.379-.39.105-.555M66.488 53.189c-.074.113-.059.194.008.247a.358.358 0 0 0 .172.099c5.892 1.838 10.949.225 15.351-3.984.233-.224.013-.424-.235-.45-5.671-.584-11.754-1.317-15.296 4.088M36.259 22.924c.292.257.899-.019.928-.349 2.331-2.359 1.812-5.882.568-8.673-1.592-3.574-6.044-2.686-8.583-4.823-.317-.269-.988.019-.922.455.487 3.17.644 6.359 2.29 9.193 1.294 2.231 3.873 2.58 5.719 4.197M61.094 26.182c2.436.011 5.171.302 7.552-.338 3.041-.816 5.266-4.345 7.855-6.025.196-.127.305-.353.001-.418-2.825-.601-6.36-1.79-9.183-.468-3.043 1.423-4.813 4.166-6.504 6.961l-.013.16c-.002.072.077.128.292.128M27.572 44.208c2.506 1.403 5.173 1.063 7.126-1.006l.062-.123c-2.381-4.594-7.229-5.546-11.708-3.465-.085.04-.291.149-.187.263 1.512 1.66 2.705 3.208 4.707 4.331M46.889 66.067c-.068-1.976-.748-3.919-.491-5.895l-.01-.149c-.078-.279-.758-.188-.971.074-2.01 1.576-3.833 3.195-5.092 5.45-1.865 3.337-2.668 7.343-3.627 10.999-.079.302.456.263.602.227 3.27-.812 6.073-2.246 7.991-5.1 1.054-1.567 1.662-3.732 1.598-5.606M27.847 23.859l.06-.002c.303.021.654-.142.648-.429-.086-3.579-1.304-6.376-4.179-8.562-4.183-3.182-8.807-4.563-12.107-8.953-.23-.306-1.016-.167-1.007.27.074 4.389 1.121 9.062 4.458 12.18 3.254 3.042 7.78 4.784 12.127 5.496M89.017 59.001c-1.857.337-2.729-1.299-3.842-2.437-.712-.729-1.604-.884-2.577-.932-2.29-.108-5.108.54-7.085 1.715a.695.695 0 0 0-.194.173c-.157.16-.215.354-.031.472 1.164.736 2.037 1.799 3.06 2.705 1.291 1.139 2.91 1.672 4.576 1.951 2.824.474 4.101-1.602 6.189-2.954.324-.21.478-.798-.096-.693M63.553 71.891c-.315-.094-.96.14-.881.409.49 1.661.48 4.793 2.503 5.411 1.983.606 4.288-.717 6.353-.411.178.026 1.072-.14.81-.47-2.081-2.642-5.371-4.752-8.785-4.939M44.815 18.733l.019.019.007.007c.197.267.938.059 1.025-.195 2.535-2.571 4.465-5.096 5.426-8.632.951-3.483.211-7.266-2.224-9.94-.196-.217-.733-.06-.904.12-2.537 2.633-4.152 5.468-5.178 8.963-.409 1.391-.82 2.631-.572 4.069.336 1.951 1.523 3.844 2.401 5.589M43.25 33.75s5.75-4.25.75-12c-1.25-2.5-5.5 1.25-4.75 6.25s4 5.75 4 5.75zM37.833 32.917s.333-6.834-4.5-7.667-6.75-.333-6.75-.333 1.667 8.833 11.25 8z"></path>
        <path d="M45.048 84.649C43.866 90.101 44.392 95 46.572 100h21.264c-3.964-7-7.68-15.628-8.312-23.473-.597-7.392.046-16.431 5.229-22.1.067-.072.059-.171-.052-.19-3.198-.606-5.769-2.199-8.065-4.224 1.29-6.444 2.861-12.762 4.916-19.035.136-.414-.87-.178-1.011.052-2.823 4.662-5.858 9.777-7.652 15.183-.906-1.007-1.799-2.032-2.708-3.032-4.5-4.953-10.533-7.23-16.861-8.456-.14-.027-1.181.17-.917.415 9.101 8.415 18.157 17.27 16.727 30.964-.658 6.299-2.745 12.387-4.082 18.545z"></path>
    </g>    <!---->
</svg>